<svg width="512" height="512" viewBox="0 0 512 512" fill="none" xmlns="http://www.w3.org/2000/svg">
<rect x="8" y="8" width="496" height="496" fill="white" stroke="black" style="fill:white;fill-opacity:1;stroke:black;stroke-opacity:1;" stroke-width="16"/>
<rect x="336" y="80" width="32" height="32" transform="rotate(90 336 80)" fill="#1A00FF" style="fill:#1A00FF;fill:color(display-p3 0.1000 0.0000 1.0000);fill-opacity:1;"/>
<rect x="336" y="112" width="32" height="32" transform="rotate(90 336 112)" fill="#1A00FF" style="fill:#1A00FF;fill:color(display-p3 0.1000 0.0000 1.0000);fill-opacity:1;"/>
<rect x="336" y="48" width="32" height="32" transform="rotate(90 336 48)" fill="#1A00FF" style="fill:#1A00FF;fill:color(display-p3 0.1000 0.0000 1.0000);fill-opacity:1;"/>
<rect x="336" y="304" width="32" height="32" transform="rotate(90 336 304)" fill="#1A00FF" style="fill:#1A00FF;fill:color(display-p3 0.1000 0.0000 1.0000);fill-opacity:1;"/>
<rect x="336" y="240" width="32" height="32" transform="rotate(90 336 240)" fill="#1A00FF" style="fill:#1A00FF;fill:color(display-p3 0.1000 0.0000 1.0000);fill-opacity:1;"/>
<rect x="336" y="272" width="32" height="32" transform="rotate(90 336 272)" fill="#1A00FF" style="fill:#1A00FF;fill:color(display-p3 0.1000 0.0000 1.0000);fill-opacity:1;"/>
<rect x="464" y="176" width="32" height="32" transform="rotate(90 464 176)" fill="#1A00FF" style="fill:#1A00FF;fill:color(display-p3 0.1000 0.0000 1.0000);fill-opacity:1;"/>
<rect x="400" y="176" width="32" height="32" transform="rotate(90 400 176)" fill="#1A00FF" style="fill:#1A00FF;fill:color(display-p3 0.1000 0.0000 1.0000);fill-opacity:1;"/>
<rect x="432" y="176" width="32" height="32" transform="rotate(90 432 176)" fill="#1A00FF" style="fill:#1A00FF;fill:color(display-p3 0.1000 0.0000 1.0000);fill-opacity:1;"/>
<rect x="272" y="176" width="32" height="32" transform="rotate(90 272 176)" fill="#1A00FF" style="fill:#1A00FF;fill:color(display-p3 0.1000 0.0000 1.0000);fill-opacity:1;"/>
<rect x="240" y="176" width="32" height="32" transform="rotate(90 240 176)" fill="#1A00FF" style="fill:#1A00FF;fill:color(display-p3 0.1000 0.0000 1.0000);fill-opacity:1;"/>
<rect x="208" y="176" width="32" height="32" transform="rotate(90 208 176)" fill="#1A00FF" style="fill:#1A00FF;fill:color(display-p3 0.1000 0.0000 1.0000);fill-opacity:1;"/>
<rect x="96" y="384" width="32" height="32" transform="rotate(90 96 384)" fill="black" style="fill:black;fill-opacity:1;"/>
<rect x="128" y="384" width="32" height="32" transform="rotate(90 128 384)" fill="black" style="fill:black;fill-opacity:1;"/>
<rect x="128" y="416" width="32" height="32" transform="rotate(90 128 416)" fill="black" style="fill:black;fill-opacity:1;"/>
<rect x="160" y="352" width="32" height="32" transform="rotate(90 160 352)" fill="black" style="fill:black;fill-opacity:1;"/>
</svg>
